<?xml version="1.0" standalone="no"?>
<!DOCTYPE svg PUBLIC "-//W3C//DTD SVG 20010904//EN"
 "http://www.w3.org/TR/2001/REC-SVG-20010904/DTD/svg10.dtd">
<svg version="1.0" xmlns="http://www.w3.org/2000/svg"
 width="6000.000000pt" height="3500.000000pt" viewBox="0 0 6000.000000 3500.000000"
 preserveAspectRatio="xMidYMid meet">
<metadata>
Created by potrace 1.16, written by Peter Selinger 2001-2019
</metadata>
<g transform="translate(0.000000,3500.000000) scale(0.100000,-0.100000)"
fill="#000000" stroke="none">
<path d="M24897 32484 c-178 -32 -329 -116 -489 -271 -143 -139 -171 -148
-688 -218 -768 -104 -1149 -207 -1590 -430 -430 -218 -789 -531 -914 -796 -57
-119 -69 -185 -63 -324 l5 -121 -75 -34 c-201 -90 -412 -269 -536 -456 -289
-435 -364 -1019 -266 -2089 30 -333 71 -607 165 -1097 32 -172 42 -243 35
-256 -7 -14 -5 -22 8 -34 11 -9 23 -43 31 -84 36 -193 273 -1236 309 -1359 5
-18 7 232 4 615 -2 355 -1 673 4 707 l8 61 175 -53 c255 -76 603 -190 945
-309 l300 -104 -2 -28 c-10 -120 -3 -265 16 -339 72 -273 276 -490 541 -577
119 -38 292 -49 406 -25 208 44 414 183 519 349 22 34 38 49 67 57 49 15 103
62 131 115 19 35 22 57 22 156 0 97 -3 122 -21 157 l-21 42 31 29 c125 114
276 172 457 172 170 0 327 -62 450 -178 l60 -57 -17 -40 c-25 -55 -25 -233 -1
-288 25 -53 89 -114 136 -128 24 -7 48 -23 57 -38 227 -355 672 -480 1049
-296 314 153 502 509 446 847 -8 46 -7 47 23 58 280 103 1150 393 1309 437 16
4 17 -10 17 -194 0 -109 -5 -324 -10 -478 -21 -638 -21 -655 -5 -605 40 118
264 989 325 1263 15 69 26 97 36 97 13 0 71 25 83 36 11 10 -25 34 -50 34 -16
0 -29 3 -29 7 0 3 20 99 44 212 127 585 183 997 216 1571 40 707 -46 1215
-267 1583 l-35 59 22 101 c28 129 37 350 21 513 -50 499 -223 786 -576 959
-166 81 -298 119 -636 184 -209 40 -322 105 -620 353 -232 193 -340 268 -494
344 -320 156 -787 239 -1068 188z m-3080 -3222 c277 -228 644 -393 1058 -477
182 -37 335 -48 550 -42 428 13 802 115 1254 341 82 41 159 81 170 88 17 10
28 9 68 -6 316 -122 589 -184 958 -216 153 -13 629 -13 805 0 173 13 387 37
518 59 l103 18 58 -81 c284 -396 482 -937 545 -1496 24 -212 37 -531 34 -829
l-3 -273 -100 -30 c-228 -66 -571 -178 -895 -290 -190 -66 -354 -122 -366
-125 -17 -4 -24 4 -39 44 -74 195 -246 369 -443 449 -112 45 -180 58 -307 58
-148 0 -223 -18 -361 -84 -77 -37 -118 -65 -178 -121 -141 -132 -203 -239
-262 -457 -3 -9 -25 5 -61 38 -77 69 -190 134 -288 167 -72 25 -95 27 -225 28
-125 0 -155 -3 -220 -23 -97 -31 -173 -70 -253 -131 l-66 -49 -21 71 c-155
514 -754 744 -1205 463 -136 -85 -257 -225 -316 -365 -15 -36 -32 -67 -36 -68
-5 -2 -130 39 -279 90 -452 158 -751 255 -1101 357 l-73 21 0 112 c0 256 29
758 56 977 86 702 370 1334 798 1778 28 28 53 52 57 52 4 0 34 -22 66 -48z
m1391 -2888 c151 -31 271 -96 379 -206 218 -223 270 -545 133 -823 -209 -422
-751 -538 -1115 -238 -188 155 -290 415 -255 649 26 172 100 314 224 432 175
166 405 233 634 186z m2777 -34 c419 -131 633 -572 470 -971 -64 -158 -193
-297 -350 -377 -88 -44 -168 -64 -286 -69 -147 -7 -235 11 -362 75 -76 37
-108 62 -183 137 -78 77 -98 104 -137 185 -61 128 -81 223 -75 359 9 188 75
337 208 471 105 107 222 172 370 205 91 21 254 14 345 -15z"/>
<path d="M22525 27296 c-160 -42 -291 -114 -409 -225 -70 -67 -86 -96 -86
-154 0 -65 36 -127 90 -154 59 -31 97 -29 161 7 129 71 260 131 344 157 84 25
102 27 285 27 174 1 198 3 227 20 104 63 93 236 -19 289 -122 58 -429 75 -593
33z"/>
<path d="M25869 27280 c-161 -33 -212 -73 -225 -171 -6 -52 24 -121 69 -153
26 -19 43 -21 225 -22 172 0 207 -3 275 -22 119 -34 199 -69 300 -131 83 -51
97 -56 148 -56 99 1 159 67 159 175 0 69 -18 99 -104 172 -127 108 -275 183
-418 212 -106 22 -317 20 -429 -4z"/>
<path d="M23005 25896 c-128 -58 -169 -274 -76 -403 69 -96 206 -98 277 -5 39
50 53 97 53 177 1 170 -128 287 -254 231z"/>
<path d="M25714 25871 c-130 -59 -165 -289 -62 -407 41 -47 77 -64 135 -64 59
0 101 24 142 80 87 121 51 324 -68 387 -53 28 -92 29 -147 4z"/>
<path d="M9955 22673 c-570 -52 -1061 -439 -1240 -976 -18 -56 -42 -136 -52
-177 -17 -71 -18 -273 -20 -4227 -2 -2284 -2 -4153 -1 -4153 2 0 95 47 208
103 182 92 376 176 510 220 l45 15 3 4191 2 4191 6205 0 c3413 0 6205 3 6205
6 0 4 -15 32 -34 63 -86 142 -224 438 -301 649 l-38 102 -5726 -2 c-3149 -1
-5744 -3 -5766 -5z"/>
<path d="M27324 22663 c-50 -149 -232 -527 -338 -701 -31 -51 -56 -95 -56 -97
0 -3 2326 -5 5170 -5 l5170 0 2 -5211 3 -5211 359 440 c303 372 368 446 417
478 l59 38 -3 4515 -2 4516 -23 97 c-138 597 -574 1020 -1172 1135 -91 17
-292 18 -4838 21 -4522 2 -4743 1 -4748 -15z"/>
<path d="M28099 20335 c226 -244 824 -1058 1089 -1482 160 -255 381 -674 518
-979 303 -678 535 -1448 678 -2255 100 -561 178 -1277 180 -1646 l1 -172 105
6 c377 21 738 -163 946 -483 30 -45 63 -103 75 -130 11 -27 27 -63 35 -80 19
-39 46 -133 46 -156 -1 -10 2 -18 6 -18 12 0 14 -271 3 -347 -11 -74 -60 -240
-86 -289 -8 -15 -12 -31 -10 -35 3 -4 -2 -10 -11 -13 -10 -4 -14 -12 -10 -23
4 -10 4 -14 0 -10 -4 3 -20 -15 -37 -41 -48 -77 -138 -182 -199 -233 -31 -26
-55 -50 -52 -53 2 -3 1 -4 -2 -1 -4 2 -25 -9 -48 -25 -66 -44 -203 -106 -298
-134 -232 -67 -449 -59 -676 27 -378 142 -650 507 -679 910 l-6 88 -31 -7
c-17 -3 -32 -7 -32 -8 -1 0 2 -44 6 -97 34 -390 266 -726 625 -906 172 -87
328 -118 543 -110 222 8 401 67 593 196 91 60 233 205 293 298 58 90 98 171
91 183 -4 6 -2 10 2 10 13 0 35 68 27 82 -4 7 -3 9 1 5 13 -11 42 100 56 212
13 106 7 253 -16 357 -21 98 -26 114 -35 109 -5 -3 -6 5 -2 17 3 13 1 19 -5
15 -7 -5 -9 0 -6 13 6 24 -49 144 -111 240 -55 85 -177 214 -265 281 -133 99
-328 183 -491 209 -36 5 -68 10 -71 10 -3 0 -9 66 -13 148 -4 81 -16 262 -27
402 -175 2259 -799 4043 -1820 5204 -271 308 -612 596 -884 747 l-60 33 64
-69z"/>
<path d="M20238 17878 l-98 -21 0 -1173 0 -1173 -42 -11 c-112 -29 -159 -44
-227 -76 -456 -210 -796 -762 -1020 -1654 -205 -814 -328 -2056 -334 -3370 -1
-314 0 -340 20 -411 26 -93 69 -181 117 -238 152 -182 435 -282 808 -285 l147
-1 23 -35 c13 -19 45 -48 71 -64 40 -25 59 -30 110 -29 75 0 122 19 170 67 50
50 67 113 67 251 0 170 -28 240 -118 292 -39 23 -59 28 -112 28 -106 -1 -179
-53 -214 -151 l-13 -39 -69 3 c-101 4 -266 30 -364 59 -259 74 -378 191 -415
407 -19 111 -19 193 0 509 98 1618 234 2735 397 3246 141 444 372 832 624
1051 235 204 467 266 766 204 419 -86 751 -478 974 -1149 252 -759 396 -1992
398 -3395 l1 -535 -23 -47 c-83 -167 -299 -285 -609 -333 -41 -6 -42 -6 -62
32 -11 22 -37 56 -59 75 -113 102 -302 52 -357 -96 -17 -44 -18 -57 -5 -170
17 -158 31 -203 77 -248 67 -64 132 -84 213 -67 64 14 120 55 150 112 23 43
27 46 75 52 404 53 713 250 815 522 46 123 51 184 45 538 -35 2093 -286 3525
-748 4283 -253 414 -584 648 -963 680 l-89 7 0 1188 c0 1049 -2 1187 -15 1186
-8 -1 -59 -10 -112 -21z m854 -8005 c10 -13 20 -74 32 -207 15 -171 16 -191 2
-205 -22 -21 -147 -29 -163 -10 -6 8 -19 101 -29 207 -14 150 -15 195 -6 204
11 11 58 20 133 27 9 0 23 -7 31 -16z m-1244 -5 c9 -9 12 -69 12 -208 0 -139
-3 -199 -12 -208 -14 -14 -136 -16 -158 -2 -12 8 -16 44 -18 199 -2 124 1 197
8 211 9 17 20 20 83 20 44 0 78 -5 85 -12z"/>
<path d="M9335 12771 c-160 -331 -367 -687 -581 -1003 l-114 -168 1 -2127 c0
-1171 4 -2117 9 -2103 5 14 32 102 60 195 128 421 361 975 609 1443 l91 173
-2 1867 -3 1867 -70 -144z"/>
<path d="M30247 12777 c-12 -32 -8 -180 8 -240 46 -178 184 -321 354 -367 69
-18 197 -14 265 10 86 29 134 60 199 129 105 110 159 269 141 417 l-8 69 -7
-67 c-11 -101 -35 -170 -82 -240 -162 -238 -490 -276 -705 -83 -87 79 -140
189 -151 315 -4 48 -9 68 -14 57z"/>
<path d="M36603 11009 c-591 -57 -1113 -452 -1332 -1005 -63 -159 -111 -385
-111 -521 0 -40 -2 -42 -32 -47 -18 -3 -49 -8 -68 -11 -19 -4 -233 -10 -475
-14 -414 -7 -445 -9 -525 -31 -380 -102 -681 -383 -804 -751 -58 -174 -56 -95
-56 -2005 0 -1193 3 -1777 11 -1830 53 -385 298 -717 654 -885 l80 -38 -13498
-1 c-8785 0 -13505 -3 -13517 -10 -65 -35 -48 -229 45 -500 109 -318 281 -623
388 -689 l34 -21 16263 0 16262 0 31 22 c186 131 466 730 493 1052 l7 74 376
5 c207 3 399 10 426 16 28 5 211 10 423 10 332 1 385 3 471 21 459 93 817 461
897 920 12 74 14 335 12 1900 l-3 1815 -27 98 c-111 400 -427 718 -815 816
-153 39 -216 41 -1355 41 -941 0 -1108 2 -1108 14 0 53 -24 235 -41 306 -73
313 -210 563 -433 785 -267 266 -592 422 -966 464 -103 11 -1591 12 -1707 0z
m1782 -703 c367 -109 634 -422 673 -788 l8 -78 -1614 0 -1614 0 7 68 c45 422
388 774 800 819 39 5 432 6 875 3 734 -5 810 -8 865 -24z m-557 -2630 c56 -29
107 -82 133 -141 17 -37 19 -81 21 -476 l3 -434 515 -5 c576 -6 550 -2 633
-79 143 -132 108 -369 -68 -464 -39 -22 -51 -22 -560 -27 l-520 -5 -5 -595
c-5 -590 -5 -595 -27 -636 -31 -59 -79 -103 -141 -132 -45 -20 -65 -23 -125
-20 -116 6 -193 56 -249 161 l-23 42 -3 593 -3 592 -501 0 c-343 0 -513 4
-538 11 -64 19 -131 78 -165 144 -25 49 -30 70 -30 129 1 114 55 204 158 258
42 23 44 23 560 26 l517 3 0 423 c0 487 -1 482 84 573 89 95 218 118 334 59z
m-8189 -4175 c26 -25 31 -36 31 -78 0 -36 -6 -56 -24 -78 l-24 -30 -5370 0
-5370 0 -26 25 c-15 13 -25 29 -22 36 2 6 0 16 -6 22 -26 26 15 108 62 125 8
3 2423 6 5366 6 l5352 1 31 -29z"/>
<path d="M9330 7163 c-140 -65 -431 -154 -600 -183 -36 -7 -70 -13 -77 -15
-14 -5 46 -63 257 -251 170 -152 466 -406 486 -417 12 -7 14 60 14 443 0 354
-3 450 -12 449 -7 0 -38 -12 -68 -26z"/>
<path d="M8651 6757 c-8 -8 -11 -241 -11 -860 0 -803 1 -848 18 -843 51 15
432 58 650 72 l102 7 0 496 0 496 -87 70 c-126 101 -413 347 -546 469 -85 78
-117 102 -126 93z"/>
</g>
</svg>
