<svg  version="1.0" xmlns="http://www.w3.org/2000/svg" viewBox="0 0 572 436" preserveAspectRatio="xMidYMid meet">
                        <g fill="#EDF2F4">
                            <path
                                d="M0 218 l0 -218 286 0 286 0 0 218 0 218 -286 0 -286 0 0 -218z m248.5 174.5 c1.3 -18.1 3.8 -50.3 5.5 -71.5 1.7 -21.2 3.4 -44.1 3.9 -51 1.7 -21.9 8 -104.4 10.6 -136 6.3 -79.3 7.8 -100 7.4 -100.4 -0.2 -0.3 -6.9 -0.9 -14.9 -1.5 -8 -0.6 -25.5 -2 -39 -3.1 -13.5 -1.1 -39.8 -3.1 -58.5 -4.5 -18.7 -1.4 -50 -3.9 -69.5 -5.4 -19.5 -1.6 -35.8 -2.6 -36.1 -2.2 -0.4 0.3 -1.4 10.5 -2.2 22.6 -0.9 12.1 -2.6 33.5 -3.7 47.5 -1 14 -3.3 43.3 -5 65 -1.6 21.7 -4.8 62.5 -7 90.5 -2.2 28.1 -4.9 63.2 -6 78 -2.9 38.8 -5.9 76 -6.6 83.3 l-0.6 6.2 2.8 0 c2.7 0 18.7 1.2 117.9 9 86.2 6.7 98 7.5 98.2 7 0.1 -0.3 1.4 -15.3 2.8 -33.5z m39 29.7 c8.1 -6.1 13.8 -27 10.5 -38.8 -1.3 -4.5 -3.3 -6.6 -13.4 -13.7 -2.4 -1.7 -2.6 -2.4 -2.6 -9.7 0 -12.9 2.1 -16 10.6 -16 5.2 0 5.6 0.2 6.6 3 1.3 3.9 3.2 3.4 3.6 -0.9 0.4 -3.8 -3.1 -11.7 -5.9 -13.1 -2.7 -1.5 -8.1 1 -11.4 5.4 -5.8 7.6 -9.3 27.4 -6.1 34.7 1.8 4.3 7.2 9.7 11.8 11.9 3.9 1.8 5.1 5.9 4.2 14 -1.2 10.9 -3.8 14 -11.8 14 -4.8 0 -7.6 -1.8 -7.6 -5.1 0 -2.2 -1.1 -2.4 -2.8 -0.7 -1.7 1.7 -1.4 5.7 0.7 10.4 3.3 7.3 8 8.8 13.6 4.6z m20.4 -0.9 c0.5 -1 1.4 -4.5 2.1 -7.9 1.8 -9 1.6 -8.9 12.2 -8.9 l9.3 0 0.5 8 c0.4 6.8 0.8 8 2.4 8.3 1.7 0.4 1.8 -0.2 1.2 -9 -0.3 -5.1 -1.1 -20.1 -1.6 -33.3 -1.4 -35.3 -2.2 -47.5 -3 -47.5 -0.4 0 -1.8 3.7 -3 8.3 -1.3 4.5 -4 14.3 -6.1 21.7 -2.1 7.4 -6.5 23.6 -9.9 36 -3.3 12.4 -6.3 23.3 -6.6 24.3 -0.3 0.9 -0.1 1.7 0.5 1.7 0.6 0 1.5 -0.8 2 -1.7z m71.2 -4.9 c5.1 -2.6 10.1 -11.1 11.9 -20.1 1.5 -8.2 6 -47.1 6 -52.4 0 -5.7 -3 -13.1 -6.1 -15.3 -2.8 -1.9 -12.8 -2.2 -15.1 -0.3 -1 0.8 -1.9 4.5 -2.6 11.7 -1.9 17.3 -8.1 71.2 -8.8 75.4 l-0.6 3.9 6.3 -0.7 c3.4 -0.4 7.5 -1.4 9 -2.2z m44.9 -2 c0.4 -0.5 1.1 -3.3 1.4 -6.2 l0.7 -5.4 -8.3 0.7 c-11.4 1 -11.4 0.9 -9.7 -14.1 1.4 -13.2 1.6 -13.4 11.4 -13.4 6.1 0 6.7 -0.5 7.5 -7.2 l0.6 -4.7 -7.5 -0.3 -7.6 -0.3 0.2 -9.8 c0.2 -5.4 0.7 -11.5 1.3 -13.6 l1 -3.8 8.5 -0.5 c4.7 -0.2 8.9 -0.9 9.4 -1.4 0.5 -0.5 1.2 -3.1 1.6 -5.8 l0.7 -4.9 -10.8 0.7 c-6 0.4 -11.1 1.1 -11.4 1.7 -0.4 0.5 -1.2 5.8 -1.9 11.7 -1.6 14.7 -4.8 41.5 -7.1 60.8 -1.1 8.8 -2 16.4 -2 16.9 0 1 21 0 22 -1.1z m43.2 -3.2 c5.7 -3.7 9.5 -11 12.2 -23.4 1 -4.5 -2.1 -3.5 -3.3 1 -0.6 2 -1.1 4.2 -1.1 4.8 0 0.6 -0.9 2.3 -2.1 3.8 -1.7 2.1 -2.9 2.6 -6.8 2.6 -2.6 0 -5.2 -0.5 -5.9 -1.2 -1.7 -1.7 -1.5 -11.2 0.8 -32.6 3.3 -30.1 4.5 -33.2 13 -33.2 5.8 0 7 1.4 7 8.4 0 4.9 1.1 6.4 3 4.1 2.9 -3.5 -0.9 -20.9 -5.2 -23.9 -5.7 -4 -14.4 6.4 -17.7 20.9 -2.2 9.9 -5.3 38.2 -5.5 49.5 -0.1 10.4 0.1 11.8 2.2 15.2 2.1 3.3 4.6 5.7 6.2 5.8 0.3 0 1.7 -0.8 3.2 -1.8z m33.8 -1.4 c0 -0.4 8.7 -34.7 16.4 -65.2 3.7 -14.2 6.4 -26.1 6.1 -26.4 -1.4 -1.5 -3 3.4 -8.5 26.4 -3.3 13.7 -6.2 25.9 -6.6 27.2 -0.6 1.9 -1.2 2.3 -4.3 2 l-3.6 -0.3 -0.5 -27 c-0.4 -23.1 -0.7 -27 -2 -27 -1.3 0 -1.5 3.6 -1.3 27 0.5 45.1 1.3 63.5 2.9 63.5 0.8 0 1.4 -0.1 1.4 -0.2z m-205.9 -95.6 c9.1 -6.1 14.3 -20.3 14.4 -39.2 0 -9.4 -0.3 -11 -2.5 -14.8 -2.1 -3.8 -10.6 -11.2 -12.8 -11.2 -2.1 0 -4.2 -6.1 -4.2 -12.2 0.1 -13.4 3.3 -18.8 11.5 -18.8 5 0 7 1.6 8 6.1 l0.7 3.1 2.4 -2.3 c2.8 -2.6 3 -4.7 0.8 -11.9 -1.9 -6.6 -6.1 -11.1 -9.5 -10.4 -10.3 2.3 -16.7 13.4 -18.7 32.5 -0.9 8.6 -0.4 15.1 1.6 20.1 1.4 3.5 9.4 11.2 13.2 12.8 4.2 1.7 5.4 5.7 4.6 15 -1.1 13.6 -3.5 17 -11.8 17 -6.7 0 -7.6 -0.7 -9.2 -6.1 l-1.3 -4.3 -2.6 2.8 c-2.9 3.1 -2.8 6.9 0.4 14.3 3.6 8.6 9.3 11.4 15 7.5z m24.9 -2.4 c0.5 -1.3 1.6 -5.6 2.6 -9.7 2.3 -10.2 3.4 -11.1 13.8 -11.1 5.7 0 8.7 0.4 9.3 1.3 0.4 0.6 1 5.2 1.3 10.1 0.5 8.8 1.2 10.4 3.9 8.7 1.1 -0.7 1.1 -7 -0.3 -40.2 -3.3 -78.5 -3.8 -81.7 -9.5 -58.4 -4.8 19.7 -25.3 100 -25.7 100.7 -0.3 0.4 0.4 0.8 1.6 0.8 1.2 0 2.4 -0.9 3 -2.2z m55.1 -3.8 c3.8 -3.1 7.2 -9.3 9.4 -17 2.3 -7.9 2.9 -12.9 9 -72.5 0.8 -8.2 1.7 -16.5 1.9 -18.2 0.4 -2.8 0.2 -3.3 -1.5 -3.3 -2.8 0 -3.3 2.3 -5.3 21.5 -6.7 66.1 -7.4 70.9 -10.7 74.4 -2.1 2.2 -8.1 2.9 -10.9 1.2 -1 -0.7 -2 -0.1 -3.7 2.4 -2.1 3.1 -2.2 3.6 -0.8 6.8 1.5 3.5 5.8 7.7 7.9 7.7 0.6 0 2.8 -1.3 4.7 -3z m42.5 -2.6 c6.7 -5.2 12.3 -21.3 14.4 -41.4 0.5 -5.8 2.4 -23 4 -38.4 3.6 -33.1 3.5 -31.6 1.1 -31.6 -2.6 0 -2.7 0.4 -5 23 -6.4 60.5 -6.9 64.6 -8.6 68.6 -2 4.8 -5.6 6.8 -11.1 6.1 -2.5 -0.2 -4.8 -0.8 -5.2 -1.2 -1.4 -1.4 -1.3 -16 0.2 -29.7 4.6 -41.4 6.6 -59.8 6.6 -62.2 0 -3.4 -3.7 -3.7 -4.4 -0.3 -0.5 1.9 -3.5 29.1 -6.7 58.7 -3 29.1 -2.2 40.7 3.3 47.5 3.6 4.3 6.6 4.5 11.4 0.9z m43 -2.6 c3.5 -2.4 8.5 -10.2 10.3 -15.8 2.1 -6.9 4.2 -23.5 3.6 -28 -1.4 -9.4 -4.5 -13.9 -13.2 -19.6 -4.3 -2.7 -5.4 -4.1 -6.3 -7.5 -1.3 -4.8 -0.6 -13.5 1.5 -18.6 1.7 -4 4.2 -5.3 10.4 -5.3 5.3 0 7.1 1.5 7.1 5.9 0 2.8 1.4 2.6 3.8 -0.4 1.6 -2 1.8 -3.2 1.1 -6.9 -1.8 -9.9 -5.2 -14.6 -10.2 -14.6 -8.3 0 -15 9.8 -18.2 26.9 -3.1 15.9 -1.2 25.1 6.5 32.4 2.8 2.6 5.5 4.7 6.1 4.7 0.5 0 2.1 1.1 3.4 2.5 2.2 2.1 2.5 3.3 2.5 10.2 0 9.1 -1.4 14.9 -4.3 18.1 -1.7 1.8 -3.1 2.2 -7.8 2.2 -6.4 0 -7.9 -1.1 -8.8 -6.6 l-0.6 -3.4 -2.8 2.6 c-2.5 2.3 -2.8 3.1 -2.2 6.7 2.4 13.9 10 20 18.1 14.5z m25.7 -8.3 c3 -13 2.8 -12.9 13 -13.8 11.4 -1.1 11.7 -0.9 11.7 9.7 0 8.9 0.8 11 3.6 10.4 1.7 -0.3 1.9 -1.3 1.7 -10.8 -0.5 -24.7 -4.3 -99.4 -5.1 -100.2 -1.6 -1.6 -2.8 1.6 -7.6 20.7 -2.7 10.5 -6.6 25.8 -8.7 34 -2.1 8.3 -6.2 24 -9 35 -2.8 11 -5.3 20.8 -5.6 21.8 -0.4 1.5 0 1.8 1.8 1.5 2.1 -0.3 2.6 -1.3 4.2 -8.3z m-191.9 -115.2 c0.7 -2.2 1.9 -10.7 4.7 -33.8 1.2 -9.9 2.7 -18.6 3.2 -19.2 0.6 -0.9 4.1 -1.3 10.1 -1.4 14.2 -0.2 13.9 0 15.3 -9.9 0.7 -4.7 0.9 -8.8 0.5 -9.1 -0.4 -0.4 -5.4 -0.3 -11.1 0.3 -11.5 1.1 -12.1 0.9 -12.1 -5 0 -1.8 0.5 -6.6 1 -10.5 3.5 -24.9 2.9 -22.6 6.4 -23.1 1.7 -0.3 8 -0.8 14.1 -1.1 6 -0.3 11.2 -1.1 11.6 -1.6 0.3 -0.6 0.9 -3.9 1.2 -7.3 0.3 -3.3 0.9 -7 1.3 -8 0.7 -1.8 0.1 -1.8 -16.7 -1.1 -9.6 0.4 -18.1 1.1 -18.9 1.5 -1.1 0.6 -2.1 5.7 -3.7 18.2 -1.3 9.5 -3.9 29.2 -5.8 43.8 -1.9 14.6 -4.6 35.3 -6 46 -1.3 10.7 -2.5 20.3 -2.5 21.3 0 1.3 0.8 1.7 3.4 1.7 2.4 0 3.6 -0.5 4 -1.7z m67.3 -2.9 l11.1 -0.6 0.6 -3.2 c0.3 -1.7 0.8 -6 1.2 -9.5 l0.7 -6.4 -13.6 0.7 -13.6 0.7 -0.7 -2.6 c-0.6 -2.5 2.1 -26.4 3.5 -31.5 0.7 -2.4 1 -2.5 12.4 -3 6.4 -0.3 11.9 -0.8 12.2 -1.1 0.8 -0.8 2.5 -11.6 2.5 -15.7 l0 -3.3 -11.5 0.7 c-13.7 0.8 -13.3 1.2 -11.6 -11.4 0.7 -4.8 1.7 -12.3 2.3 -16.7 0.5 -4.4 1.5 -8.3 2 -8.6 0.6 -0.4 7.1 -1 14.4 -1.4 7.4 -0.4 13.6 -1.1 13.9 -1.5 1 -1.7 2.6 -16.3 1.8 -17 -1 -0.9 -34.9 1.3 -35.9 2.3 -0.5 0.4 -3.4 20.4 -6.5 44.5 -3.2 24 -6.9 52.5 -8.3 63.2 -1.4 10.7 -2.6 20.3 -2.6 21.4 0 1.7 0.6 1.8 7.3 1.2 3.9 -0.3 12.2 -0.9 18.4 -1.2z m53 -4.6 c8.4 -6.6 14 -15.8 17.3 -28.5 2 -7.7 6 -34.1 6 -39.5 l0 -2.8 -8 0 c-9.7 0 -10.5 0.8 -11.5 12.3 l-0.7 7.7 4.1 0 c5.3 0 5.7 1.1 4.3 11.7 -1.2 9 -3.7 15.8 -7.1 19.2 -3 3 -13.2 3 -16.2 0 -2.1 -2.1 -2.2 -2.8 -1.6 -15.3 0.4 -7.2 1.3 -17.4 2.2 -22.6 0.8 -5.2 2.2 -15.3 3.1 -22.5 1.9 -15.8 3.7 -22.5 7.2 -26.8 3.7 -4.4 4.1 -4.7 9 -4.7 6.7 0 8.7 3 9.4 14.5 0.3 3.9 0.4 4 3.8 3.7 1.9 -0.2 3.9 -0.7 4.3 -1.2 1.5 -1.4 1 -16.2 -0.7 -22 -3.1 -10.6 -10.3 -16 -17.5 -13.1 -2.8 1.2 -11.1 8.2 -11.1 9.4 0 0.3 -1.1 2.2 -2.4 4.2 -2.2 3.2 -6.5 14.9 -8 21.7 -0.4 1.6 -1.5 9.4 -2.7 17.5 -7 51.7 -7.4 57.4 -4 66.3 3.6 9.4 8.2 13.3 14.9 12.5 2.3 -0.2 5 -1 5.9 -1.7z m57.6 -4.2 c7.7 -4.7 14.2 -16.3 17.3 -30.6 1.7 -8 13.4 -94.4 13.4 -99.1 0 -1.1 -6.7 -1.2 -7.4 -0.1 -0.3 0.5 -3.3 22 -6.6 47.8 -6.8 51.8 -7.2 54.2 -10.2 59.5 -2.6 4.6 -5.9 6.1 -12.4 5.7 -4.5 -0.3 -5.1 -0.6 -6.7 -3.8 -2.2 -4.2 -1.9 -10.5 1.8 -39.5 1.4 -10.4 3.8 -29.6 5.5 -42.5 1.6 -12.9 3 -24 3 -24.7 0 -1.7 -6.9 -1.7 -7.5 0 -0.3 0.6 -1.8 11.6 -3.4 24.2 -1.7 12.7 -4.2 32 -5.6 43 -5 39.1 -5 45.2 0.2 54.5 4.6 8.2 11.2 10.2 18.6 5.6z m37.8 -4.1 c0.5 -1.6 2.7 -17.6 4.9 -35.5 2.3 -17.9 5.8 -45.9 7.9 -62.3 2 -16.3 3.5 -30 3.3 -30.2 -0.3 -0.3 -1.8 -0.5 -3.3 -0.5 -3.4 0 -4.4 1.7 -5.2 8.5 -0.8 6.6 -5.6 44.5 -10.8 83.5 -2.2 17.3 -4.3 33.4 -4.6 35.8 l-0.6 4.3 3.9 -0.3 c3.3 -0.3 3.9 -0.7 4.5 -3.3z" />
                            <path
                                d="M196.5 416 c-19.2 -1.6 -58.8 -4.7 -88 -6.9 -70.5 -5.5 -72.4 -5.7 -73.2 -6.5 -0.4 -0.3 0.1 -11.1 1.1 -23.9 3.5 -46.5 6.7 -87.9 9.1 -117.7 1.4 -16.8 4.1 -51.4 6 -77 8.6 -112.1 12.4 -159.2 12.9 -159.7 0.3 -0.3 12.6 0.4 27.3 1.6 14.7 1.2 44.6 3.5 66.3 5.1 21.7 1.6 45.6 3.5 53 4.1 7.4 0.6 23.2 1.8 35 2.7 l21.5 1.7 0.3 5.2 c0.2 2.8 -1.5 28.7 -3.8 57.5 -2.3 28.8 -5 63.8 -6 77.8 -1.1 14 -3.1 39.9 -4.5 57.5 -1.4 17.6 -3.2 41 -4 52 -0.9 11 -2.7 34.4 -4 52 -1.4 17.6 -3 38.5 -3.6 46.5 -0.6 8 -1.4 18.1 -1.7 22.5 l-0.7 8 -4 0.2 c-2.2 0 -19.7 -1.2 -39 -2.7z m10.8 -21.4 c10 -5.8 13 -13.8 14.7 -38.3 0.5 -8.4 1.4 -21.9 2 -30 0.5 -8.2 1.7 -24.2 2.5 -35.8 6 -83.3 6.1 -88.7 2.1 -96.3 -4.6 -8.8 -17.5 -14 -35.2 -14.2 l-4.1 0 -0.6 4.8 c-0.4 2.6 -1.1 13.5 -1.7 24.2 -1.6 29.6 -4.9 80.3 -6.5 101 -0.8 10.2 -1.7 24.4 -2.1 31.5 -0.4 7.2 -1.1 14.1 -1.6 15.4 -0.8 2.3 -1 2.3 -9.6 1.6 -4.8 -0.4 -19.7 -1.5 -33.2 -2.4 l-24.5 -1.6 -0.3 -8 c-0.2 -4.4 0.1 -14.5 0.7 -22.5 2.4 -33.1 5.4 -82.1 4.9 -82.5 -0.5 -0.5 -16 -1.8 -36 -3 l-10.6 -0.7 -0.6 5.4 c-0.3 2.9 -1 13.4 -1.6 23.3 -1.8 31.1 -3.9 62.8 -4.5 68 -0.3 2.8 -0.6 12.2 -0.7 21 -0.1 15.5 0 16.2 2.6 21.3 2.9 5.7 8.6 10.5 14.5 12.2 4.6 1.4 25.5 3.1 84.6 7 8.3 0.6 16.6 1.2 18.5 1.4 1.9 0.2 7.6 0.3 12.5 0.2 8 -0.2 9.7 -0.5 13.8 -3z m-41.9 -188.1 c0.3 -5.2 0.9 -13.8 1.2 -19 0.7 -9.2 0.6 -9.5 -1.4 -9.5 -7.6 0 -46.9 -3.3 -47.6 -4 -0.4 -0.4 -0.3 -5 0.2 -10.2 0.6 -5.1 2.4 -21.9 4.1 -37.3 1.7 -15.4 3.4 -30 3.8 -32.5 l0.8 -4.5 12 0.2 c6.6 0.1 31.4 1.5 55 3.2 23.7 1.6 43.1 2.8 43.2 2.7 0.2 -0.2 0.9 -8.3 2.7 -32.2 l0.5 -6.1 -8.7 -0.7 c-4.8 -0.3 -31.6 -2.2 -59.7 -4.1 -28 -1.9 -58.3 -4 -67.3 -4.6 -8.9 -0.7 -16.4 -1 -16.6 -0.8 -0.3 0.2 -1.8 14.6 -3.6 31.9 -3.2 32.7 -6.3 62.8 -10.6 105.4 -1.4 13.6 -2.4 24.9 -2.2 25.1 0.2 0.1 8.9 0.8 19.3 1.5 10.5 0.7 30 2 43.5 3 13.5 0.9 25.9 1.8 27.6 1.9 l3.1 0.1 0.7 -9.5z" />
                            <path
                                d="M317.4 390.5 c-0.8 -2.1 0 -7 2.8 -17.5 l2.4 -8.5 3.9 0 4 0 0 13.5 0 13.5 -6.3 0.3 c-5 0.2 -6.3 0 -6.8 -1.3z" />
                            <path
                                d="M370 398.8 c0 -4 0.5 -10.4 1.1 -14.3 0.5 -3.8 1.6 -13.3 2.4 -21 2.1 -19.7 2.6 -22.4 4.2 -24 1.9 -2 10.2 -1.9 13.1 0.1 1.9 1.3 2.2 2.4 2.2 9.2 0 11.5 -4.6 48.5 -6.4 52.1 -2.1 4.1 -4.4 5.1 -11 5.1 l-5.6 0 0 -7.2z" />
                            <path
                                d="M332.3 275.3 c-2.1 -0.8 -1.5 -8 1.7 -20.7 1.7 -6.6 3 -12.1 3 -12.3 0 -0.3 1.7 -0.3 3.8 -0.1 l3.7 0.3 0.9 11.8 c0.4 6.5 0.5 13.8 0.2 16.2 -0.6 4 -0.9 4.3 -4.4 4.9 -4.3 0.7 -7.2 0.7 -8.9 -0.1z" />
                            <path
                                d="M496.7 264.3 c-1.4 -1.4 -0.4 -11.2 2.1 -21.3 l2.7 -10.5 3.4 -0.3 c2 -0.2 3.7 0.2 4.2 1 0.5 0.7 0.9 7.7 0.9 15.5 0 13.1 -0.2 14.3 -1.9 15.3 -2.2 1.1 -10.4 1.4 -11.4 0.3z" />
                        </g>
                        <g fill="#E63946">
                            <path
                                d="M178 400.4 c-1.9 -0.2 -10.2 -0.8 -18.5 -1.4 -59.1 -3.9 -80 -5.6 -84.6 -7 -5.9 -1.7 -11.6 -6.5 -14.5 -12.2 -2.4 -4.8 -2.7 -6.5 -2.9 -17.3 -0.1 -6.6 0.2 -17.4 0.6 -24 1.6 -22.3 3.8 -56.9 4.9 -74.5 0.6 -9.6 1.3 -20.3 1.6 -23.8 l0.6 -6.3 3.6 0.5 c2.1 0.3 11.4 1 20.7 1.6 9.4 0.6 19.8 1.3 23.2 1.6 l6.2 0.6 -0.5 4.7 c-0.2 2.5 -1.3 19 -2.4 36.6 -1.1 17.6 -2.5 38.8 -3.1 47 -0.6 8.3 -0.9 17.3 -0.7 20 l0.3 5 25.5 1.7 c14 0.9 27.7 1.9 30.3 2.2 6.1 0.7 6.2 0.3 7.1 -16.9 0.4 -7.1 1.1 -18.2 1.6 -24.5 1.4 -16.4 5.8 -84 6.5 -100 0.7 -14.8 2.4 -37.3 3 -37.8 0.1 -0.2 6.5 0.3 14.2 1.1 19.8 2.1 27.6 6 31.8 16 3.2 7.8 3 16.8 -3 100.2 -0.8 11.6 -1.9 27.5 -2.5 35.5 -0.5 8 -1.4 21.5 -2 30 -1.7 24.9 -4.7 32.8 -14.7 38.7 -4.5 2.6 -5.6 2.8 -16.8 2.9 -6.6 0.1 -13.6 0 -15.5 -0.2z" />
                            <path
                                d="M283.4 318.1 c-6.2 -3.8 -11.5 -20.8 -8.4 -26.7 1.6 -3 8.5 -7.8 9.9 -6.9 0.6 0.3 1.1 1.6 1.1 2.9 0 4.3 2.1 8.6 4.5 9.2 5.8 1.4 9.1 -2.4 10.7 -12.3 1.2 -7.8 0 -11.6 -4.2 -13.3 -4 -1.7 -11.7 -9.3 -13.3 -13.2 -2.3 -5.4 -2.8 -13.6 -1.7 -24.3 1.3 -11.8 3.1 -18.1 7.2 -25 3.5 -6 7.1 -8.3 14.3 -9.1 5 -0.6 5.6 -0.5 8.4 2.3 3.5 3.5 6.1 11.6 6.1 18.9 0 4.8 -0.3 5.4 -4.5 9.3 -4.7 4.4 -6.5 4.6 -6.5 0.7 0 -3.9 -2.1 -8.5 -4.1 -9.1 -2.3 -0.8 -6.3 1.6 -7.9 4.5 -0.6 1 -1.3 4.6 -1.6 7.8 -0.5 4.8 -0.3 6.6 1.2 9.1 1 1.7 2.2 3.1 2.6 3.1 2.2 0 10.7 7.4 12.8 11.2 2.3 4 2.5 5.3 2.5 17.8 0 15.1 -1.9 25.3 -6.3 33 -5.9 10.4 -15.4 14.6 -22.8 10.1z" />
                            <path
                                d="M312.2 313.3 c0.3 -2.1 5.8 -24.5 12.2 -49.8 6.5 -25.3 12.6 -49.6 13.7 -54 2.9 -11.8 3.3 -12.5 7.3 -12.5 1.9 0 3.8 0.5 4.1 1.1 0.9 1.3 2.1 21.7 4 69.4 0.8 20.9 1.8 39.4 2 41.2 0.8 4.4 -1.6 6.5 -6.9 6.1 l-4.1 -0.3 -0.5 -9 c-0.3 -4.9 -0.9 -9.6 -1.3 -10.2 -0.5 -0.8 -3 -1.3 -6.3 -1.3 -7 0 -8.6 1.6 -10.8 11.1 -2.8 11.9 -2.8 11.9 -8.7 11.9 l-5.1 0 0.4 -3.7z m30.2 -44.6 c0.7 -3.2 -0.2 -20 -1.1 -22.7 -0.7 -2.1 -1.8 0.9 -4.9 14.2 -2.9 11.9 -2.7 12.8 2.5 12 2.3 -0.3 3 -1 3.5 -3.5z" />
                            <path
                                d="M363.1 311.3 c-3.3 -3.3 -6.4 -10.4 -5.4 -13 1.1 -2.9 7.5 -12.3 8.4 -12.3 0.5 0 1.4 1 2 2.3 2.2 4.2 4 4.6 6.8 1.6 3.3 -3.5 4 -8.3 10.7 -74.4 2.3 -22 2.1 -21.5 8.4 -21.5 5 0 5.8 0.7 5 4.5 -0.2 1.1 -2.7 25.1 -6 57.1 -3.2 31.1 -4.5 38.1 -9 47.7 -4.8 10.2 -14.6 13.9 -20.9 8z" />
                            <path
                                d="M407.4 311.1 c-3.1 -1.3 -6.8 -6.8 -8.3 -12 -2.3 -8 -1.6 -24.1 2.4 -58.6 0.8 -6.6 2.2 -19.5 3.2 -28.8 0.9 -9.2 2 -17.2 2.3 -17.7 0.3 -0.5 2.7 -1.3 5.2 -1.6 4 -0.6 4.7 -0.4 5.2 1.3 0.3 1 -0.7 13.6 -2.3 27.9 -7.2 64 -7.3 65.6 -2.8 66.8 2.9 0.7 6.6 -1.8 8.2 -5.8 1.7 -4 2.2 -8.1 8.6 -68.6 1.1 -10.7 2.2 -20.3 2.5 -21.2 0.4 -1.4 1.6 -1.8 5.4 -1.8 5.3 0 6 0.7 5.4 5.5 -0.4 3.1 -5.5 51.7 -7.4 70.5 -2.1 20.1 -7.7 36.2 -14.4 41.3 -3.7 2.9 -9.9 4.2 -13.2 2.8z" />
                            <path
                                d="M450 308.3 c-5.5 -2 -9.9 -10.3 -10.7 -20.4 l-0.6 -6.6 3.8 -3.4 c6.6 -6.1 8.5 -6 8.5 0.6 0 4.3 2.5 7.5 5.9 7.5 5.3 0 9.1 -7.2 9.1 -17.3 0 -3.8 -0.5 -5.3 -2.5 -7.2 -1.3 -1.4 -2.9 -2.5 -3.4 -2.5 -0.6 0 -3.3 -2.1 -6.1 -4.7 -4 -3.8 -5.4 -5.9 -6.5 -10.3 -4.6 -17.2 1.8 -45.9 11.6 -52.8 3 -2.1 11.6 -3.2 15.1 -2 4.2 1.5 8.8 13.2 8.8 22.6 0 2.8 -8.3 11.8 -9.9 10.8 -0.6 -0.4 -1.3 -2.3 -1.7 -4.4 -0.9 -5.2 -2.2 -7.2 -4.5 -7.2 -4.9 0 -7.4 3 -8.8 10.6 -1.4 7.3 0.1 10.9 6.2 14.8 9.7 6.3 12.6 11.4 13.4 23.6 0.6 9.8 -2.6 28.2 -6.1 35.4 -5.1 10.3 -14 15.7 -21.6 12.9z" />
                            <path
                                d="M477 305.5 c-0.8 -1 -0.3 -4.4 2 -13.7 6.6 -25.6 14.9 -58.1 20.5 -80.3 3.2 -12.6 6.2 -23.6 6.8 -24.2 1.1 -1.5 7.3 -1.7 8.2 -0.3 0.3 0.5 1.5 20.4 2.5 44.2 1.1 23.8 2.3 49.7 2.7 57.5 0.7 15.5 1 14.6 -5.4 15.7 -5.1 0.9 -6.3 -1.1 -6.3 -10.8 0 -5.5 -0.4 -8.7 -1.2 -9.3 -0.7 -0.5 -4 -0.7 -7.3 -0.4 -7 0.7 -7.5 1.3 -10.1 13.4 -1 4.4 -2.2 8 -2.8 8.2 -4.1 1.2 -8.6 1.2 -9.6 0z m28.1 -44.5 c1.7 -1 1.9 -2.2 1.9 -12.3 0 -11.7 -1.1 -16.2 -2.8 -11.7 -1.9 5.2 -5.4 22.1 -4.8 23.5 0.6 1.7 2.9 1.9 5.7 0.5z" />
                            <path
                                d="M130.5 217 c-13.7 -1 -33.1 -2.3 -43 -2.9 -9.9 -0.7 -18.6 -1.4 -19.3 -1.6 -0.9 -0.3 -1.1 -1.5 -0.7 -3.7 0.5 -3.3 4.2 -38.7 9.5 -93.3 1.7 -16.5 3.9 -38.7 5 -49.3 1.1 -10.7 2 -20 2 -20.8 0 -1.7 7.1 -1.8 25.6 -0.4 7.1 0.6 36.3 2.6 64.9 4.5 28.6 2 55.8 3.8 60.3 4.2 l8.4 0.6 -0.7 10.1 c-1.1 17.3 -2.5 33.9 -2.9 34.4 -0.3 0.2 -21.7 -1.1 -47.8 -2.8 -26 -1.8 -50.7 -3.3 -54.8 -3.4 l-7.5 -0.1 -0.8 4.5 c-0.4 2.5 -2.1 17.1 -3.8 32.5 -1.7 15.4 -3.4 31.1 -3.8 34.8 -0.4 3.7 -0.4 7 -0.1 7.2 0.6 0.4 42.8 3.5 47.2 3.5 2.1 0 2.1 0.2 1.4 13.8 -0.3 7.5 -0.9 17.4 -1.3 22 l-0.6 8.2 -6.1 -0.1 c-3.4 -0.1 -17.3 -1 -31.1 -1.9z" />
                        </g>
                        <g fill="#175676">
                            <path
                                d="M213 427.4 c-28.1 -2.3 -61 -4.9 -145.5 -11.4 -20.9 -1.7 -39.3 -3 -40.9 -3 l-2.9 0 0.7 -9.7 c0.3 -5.4 1.3 -17.9 2.1 -27.8 0.8 -9.9 2.6 -33.1 4 -51.5 1.3 -18.4 4.3 -56.4 6.5 -84.5 2.2 -28 5.4 -68.8 7 -90.5 1.7 -21.7 4 -51 5 -65 1.1 -14 2.8 -35.4 3.7 -47.5 0.8 -12.1 1.9 -22.4 2.3 -22.8 0.4 -0.5 18.5 0.5 40.1 2.2 21.7 1.8 54 4.3 71.9 5.6 17.9 1.4 43.8 3.4 57.5 4.5 13.8 1.1 31.8 2.5 40 3.1 8.3 0.6 15.1 1.2 15.2 1.3 0.1 0.1 -1.1 16.8 -2.7 37.1 -6.9 85.8 -13.3 168 -16 205 -0.5 7.2 -2.3 30.3 -4 51.5 -4.6 58.1 -8 103.1 -8 104.6 0 1.7 0.8 1.8 -36 -1.2z m24.2 -20 c0.3 -4.3 1.1 -14.2 1.7 -21.9 1.6 -21.8 6.9 -91.3 9.1 -119 2.4 -30.6 6.3 -80.2 9 -115 1.1 -14.3 3.4 -44.1 5.1 -66.3 1.7 -22.1 2.9 -40.8 2.6 -41.5 -0.3 -0.9 -7.1 -1.8 -23.8 -3 -12.9 -1 -28.3 -2.2 -34.4 -2.7 -6 -0.5 -29.4 -2.3 -52 -4 -22.5 -1.7 -51.3 -3.9 -64 -4.9 -12.6 -1.1 -23.1 -1.8 -23.3 -1.6 -0.3 0.3 -5.1 60 -12.7 159.5 -1.9 25.6 -4.6 60.2 -6 77 -1.4 16.8 -3.6 45.6 -5 64 -1.4 18.4 -3.2 42 -4.1 52.4 -0.8 10.4 -1.2 19.1 -0.9 19.4 0.6 0.6 4.1 0.9 73 6.3 29.2 2.2 68.8 5.3 88 6.9 19.3 1.5 35.5 2.7 36 2.5 0.6 -0.1 1.3 -3.7 1.7 -8.1z" />
                            <path
                                d="M274.7 426 c-2.9 -2.3 -5.3 -8.3 -6.1 -14.9 -0.4 -4.2 -0.2 -4.7 3.5 -8.3 4 -3.9 5.9 -4.7 5.9 -2.5 0 4 2.3 8.7 4.5 9.3 5.4 1.3 9.6 -4.6 9.7 -13.6 0 -5.9 -0.4 -6.6 -4.5 -8.4 -4.2 -1.8 -9.5 -7.1 -11.4 -11.5 -1.1 -2.8 -1.4 -6 -1 -14.1 0.9 -18.5 5.9 -29.2 15.3 -32.4 4 -1.3 5 -1.4 7.9 -0.2 3.9 1.7 7.1 7.7 8.1 15.3 0.6 5.1 0.6 5.3 -3.2 8.7 -2.2 2 -4.3 3.4 -4.9 3.3 -0.5 -0.2 -1.3 -2.3 -1.8 -4.6 -0.9 -4.5 -2.3 -5.7 -6.1 -4.7 -3.2 0.8 -5.6 6.2 -5.6 12.5 0 4.2 0.4 5.3 2.6 6.8 9.7 6.9 12 9.2 13.3 13.3 2.5 8.5 0.9 25.9 -3.3 35.3 -2.5 5.6 -6.7 10.4 -10.4 11.8 -4 1.5 -9.8 1 -12.5 -1.1z" />
                            <path
                                d="M301 424.6 c0 -1.5 17.4 -65.6 24.4 -89.6 2 -6.9 2.4 -7.5 5 -7.8 1.6 -0.2 3.2 0 3.6 0.5 0.5 0.4 1.3 11.4 1.9 24.3 0.6 12.9 1.3 28 1.6 33.5 0.2 5.5 0.8 16.4 1.1 24.3 l0.7 14.3 -4.9 -0.3 -4.9 -0.3 -0.5 -8 -0.5 -8 -6.3 0 c-7.3 0 -7.5 0.2 -9.2 8.9 -1.7 8.9 -2.3 9.6 -7.5 9.6 -3.1 0 -4.5 -0.4 -4.5 -1.4z m26.5 -46.3 c0 -10.5 -1.2 -13.5 -2.9 -7.1 -0.5 1.8 -1.7 6.2 -2.7 9.7 -1 3.6 -1.6 6.8 -1.3 7.3 0.3 0.5 2 0.8 3.7 0.6 l3.2 -0.3 0 -10.2z" />
                            <path
                                d="M361 419.4 c0 -1.6 1.8 -18.4 4 -37.4 2.2 -19 4.6 -39.2 5.2 -45 0.7 -7.2 1.6 -10.9 2.6 -11.7 1 -0.8 4.8 -1.3 10.2 -1.3 10.1 0 12.3 1.1 15.1 7.7 2.6 6.1 2.5 15.3 -0.6 41.2 -3.1 25.8 -4 30.3 -6.6 35.8 -4.8 10 -8.4 12.2 -21 13 l-8.9 0.6 0 -2.9z m19.1 -17.4 c3.7 -2 5 -6.9 7.5 -27.8 3.1 -27 3.1 -29.7 -0.1 -31.8 -2.9 -1.9 -7 -1.2 -7.9 1.3 -0.4 0.9 -1.3 7.8 -2.2 15.2 -0.8 7.5 -2.1 18.7 -2.9 24.9 -0.8 6.3 -1.5 13.1 -1.5 15.3 0 3.5 0.2 3.9 2.6 3.9 1.4 0 3.4 -0.5 4.5 -1z" />
                            <path
                                d="M399.7 419.3 c-1.1 -1 -0.8 -6.9 0.8 -19.3 0.8 -6.3 1.9 -15.5 2.4 -20.5 1.6 -15.4 6.1 -52.9 6.6 -55.1 0.4 -2 1.4 -2.2 9.7 -2.8 5.1 -0.4 11.5 -0.9 14.2 -1.2 l4.9 -0.6 -0.6 8.3 c-0.4 4.5 -1.1 8.7 -1.7 9.3 -0.5 0.5 -4.8 1.2 -9.5 1.4 l-8.5 0.5 -0.9 3.6 c-0.6 2 -1.1 6.8 -1.3 10.6 l-0.3 7 7.5 0 7.5 0 -0.3 7.4 c-0.4 10.3 -1 11.1 -8 11.2 -9.3 0.1 -9.5 0.3 -10.8 10.5 -0.6 4.9 -0.7 9.4 -0.3 10 0.5 0.7 4 0.9 9.5 0.6 l8.7 -0.5 -0.7 8.3 c-0.4 4.6 -0.9 8.7 -1.1 9.1 -0.8 1.2 -26.8 3.3 -27.8 2.2z" />
                            <path
                                d="M458.8 415 c-0.9 -0.6 -2.7 -2.7 -4 -4.8 -2.1 -3.5 -2.3 -4.7 -2.2 -18.2 0.1 -13.8 3 -41.3 5.6 -52.5 2.7 -12.1 8.8 -20.8 15.3 -22.1 9.2 -1.7 13.5 4.5 14.3 20.5 0.5 11 -0.2 12.5 -6 11.9 -3.2 -0.3 -3.3 -0.4 -3.8 -5.8 -0.3 -3 -0.9 -6.1 -1.3 -6.7 -1.2 -1.9 -4.1 -1.6 -6.1 0.6 -2.9 3.2 -4.3 9.8 -6.7 32.9 -2.4 23.4 -2.3 25.4 1.8 26 2.7 0.4 5.2 -2.8 6.8 -8.8 0.8 -2.9 1.5 -5.3 1.7 -5.5 0.2 -0.2 2.1 -0.5 4.3 -0.7 3.8 -0.3 4 -0.1 4.3 2.7 0.7 6 -3.6 19.8 -8 25.5 -4.2 5.3 -11.4 7.6 -16 5z" />
                            <path
                                d="M494.6 394.8 c-0.3 -10.1 -0.7 -31.8 -0.9 -48.3 l-0.2 -30 4.5 0 4.5 0 0.3 26 c0.1 14.3 0.5 26.7 0.8 27.5 0.9 2.4 2 -1.2 8.4 -28.4 3.3 -13.7 6.3 -25.3 6.8 -25.8 0.4 -0.4 2.5 -1 4.5 -1.2 2.8 -0.4 3.9 -0.1 4.4 1 0.3 0.8 -2.9 15 -7.2 31.7 -8.3 32.6 -16.5 65 -16.5 65.5 0 0.1 -2 0.2 -4.4 0.2 l-4.4 0 -0.6 -18.2z" />
                            <path
                                d="M283.9 183.4 c-0.7 -0.9 -0.7 -3.4 0 -8.6 0.6 -4 2 -14.5 3.1 -23.3 1.2 -8.8 3.6 -27.7 5.5 -42 1.8 -14.3 4.4 -33.9 5.6 -43.5 1.2 -9.6 2.6 -17.9 3.1 -18.5 1 -1.1 38.3 -3.7 41.2 -2.8 1.6 0.5 1.8 1.2 1.2 6.2 -1.8 13.9 -2.2 17.1 -2.7 17.5 -0.3 0.3 -5.4 0.8 -11.4 1.1 -6.1 0.3 -12.4 0.8 -14.1 1.1 -3.5 0.5 -2.9 -1.8 -6.4 23.1 -1.2 8.4 -0.7 10.5 2.4 9.8 1.1 -0.3 6.2 -0.6 11.1 -0.7 l9 -0.3 0.3 3.5 c0.1 1.9 -0.4 7.3 -1 11.9 -1.5 9.9 -1.3 9.8 -15.9 10.2 -4.9 0.2 -9.3 0.8 -9.8 1.3 -0.4 0.6 -1.8 9.2 -3 19.1 -3.4 27.4 -4.2 33.1 -4.9 34.2 -1.1 1.6 -12 2.2 -13.3 0.7z" />
                            <path
                                d="M332.6 180.1 c-0.3 -0.5 0.8 -11.1 2.4 -23.7 13 -99.5 14.7 -111.6 15.8 -112.3 0.7 -0.4 10.1 -1.3 21 -1.9 15.5 -0.9 19.9 -0.9 20.8 0.1 0.9 0.9 0.9 3.7 -0.2 11.6 -0.8 5.8 -1.7 10.8 -2.1 11.2 -0.5 0.4 -6.4 1 -13.3 1.4 -6.9 0.4 -13.2 0.9 -14.2 1.1 -1.2 0.4 -1.8 2.1 -2.3 6.7 -0.3 3.4 -1 8.5 -1.5 11.2 -0.5 2.8 -1 6.8 -1.2 9 l-0.3 4 11.7 -0.4 c9.8 -0.3 11.9 -0.1 12.3 1.2 0.6 1.3 -0.7 14.1 -2.1 20.8 -0.6 3.2 -2.8 3.8 -15.7 4.1 -4.8 0.1 -9 0.5 -9.4 1 -0.3 0.5 -1.1 5.8 -1.9 11.6 -0.8 5.9 -1.6 11.8 -1.9 13.2 -0.9 4.7 0 5 13.5 4 16.3 -1.3 15.7 -1.8 13.6 13.1 -0.9 6.2 -1.8 11.4 -1.9 11.5 -0.3 0.3 -35.1 2.4 -39.1 2.4 -1.9 0 -3.7 -0.4 -4 -0.9z" />
                            <path
                                d="M399 175.3 c-7.3 -5.2 -10.3 -13.1 -10.3 -27.3 0.1 -9.9 0.6 -14.9 5.3 -50 3.6 -26.4 6.6 -38.2 11.6 -45.5 1.3 -2 2.4 -3.9 2.4 -4.2 0 -1.6 8.8 -8.4 12.8 -10 3.7 -1.4 5.1 -1.5 9.1 -0.5 9.8 2.6 14.4 12.2 14.4 30.6 0.1 12.8 -0.4 13.5 -9.1 13.2 l-5.7 -0.1 -0.6 -6.5 c-0.6 -7.3 -2 -10.6 -4.8 -11.5 -2.6 -0.8 -4.2 0.1 -7.3 4.2 -3.4 4.4 -5.3 11 -6.8 23.3 -0.6 5.2 -2 15.6 -3.1 23 -1.1 7.4 -2.3 17.8 -2.6 23.1 -0.5 8.9 -0.4 9.8 1.6 11.8 4.6 4.6 10.5 2 14.1 -6.3 2 -4.4 4.3 -16.3 3.4 -17.7 -0.3 -0.5 -2.2 -0.9 -4.4 -0.9 -2.2 0 -4 -0.5 -4.3 -1.3 -0.9 -2.4 1.9 -21.7 3.4 -23.1 2.2 -2.1 21.4 -2.9 22.9 -1.1 1 1.1 0.6 5.7 -1.4 20.7 -4 29.9 -7.8 41.7 -16.4 50.3 -6.3 6.4 -7 6.8 -14.6 7.2 -5.6 0.3 -7.6 0 -9.6 -1.4z" />
                            <path
                                d="M459.5 172.9 c-4.2 -1.3 -5.8 -2.7 -8.8 -7.9 -3.3 -5.7 -5 -16.9 -4.1 -27 0.3 -4.1 1.9 -17.6 3.5 -30 1.6 -12.4 4.3 -33.3 6 -46.5 1.6 -13.2 3.3 -24.3 3.7 -24.6 0.4 -0.4 3.3 -0.9 6.5 -1.2 4.7 -0.5 5.9 -0.3 6.6 1.1 0.8 1.6 -0.1 9.5 -7.8 69.4 -3.9 29.9 -4.2 35.5 -1.8 39.1 4.4 6.7 13 0.5 15.6 -11.3 0.5 -2.5 3.7 -25.6 7.1 -51.5 3.4 -25.9 6.4 -47.3 6.8 -47.7 1.4 -1.3 11.1 -1.6 12.8 -0.3 1.5 1 1.6 1.9 0.6 7.6 -0.6 3.5 -1.9 12.3 -2.7 19.4 -3.7 29.7 -9.6 72.4 -10.9 78.5 -3.1 14.4 -9.7 26 -17.3 30.6 -4.5 2.6 -11.6 3.7 -15.8 2.3z" />
                            <path
                                d="M498.7 168.6 c-0.4 -0.9 0 -5.9 0.9 -11.3 0.8 -5.4 2.8 -20.4 4.4 -33.3 1.7 -12.9 4.6 -35.6 6.5 -50.5 1.9 -14.8 3.8 -29.5 4.1 -32.5 1 -8.5 1.5 -9 8.5 -9 4.2 0 6.1 0.4 6.5 1.4 0.3 0.8 -1.3 16 -3.5 33.8 -2.3 17.8 -5.9 46.7 -8.2 64.3 -2.2 17.6 -4.3 33.4 -4.8 35 -0.7 2.9 -0.9 3 -7.3 3.3 -5.1 0.2 -6.7 0 -7.1 -1.2z" />
                        </g>
                    </svg>