<svg id="svg-medico" version="1.0" xmlns="http://www.w3.org/2000/svg" width="205.000000pt" height="246.000000pt" viewBox="0 0 205.000000 246.000000" preserveAspectRatio="xMidYMid meet">
                <metadata>
                    Created by potrace 1.16, written by Peter Selinger 2001-2019
                </metadata>
                <g transform="translate(0.000000,246.000000) scale(0.100000,-0.100000)" fill="#134C69"
                    stroke="none">
                    <path d="M615 2442 c-27 -10 -117 -62 -200 -117 -154 -101 -344 -205 -376
           -205 -59 0 5 -63 81 -79 28 -6 64 -18 81 -26 74 -39 253 -78 349 -78 l56 1 18
           -44 c10 -24 31 -54 46 -67 27 -23 27 -26 17 -65 -16 -62 11 -140 72 -203 l47
           -49 -35 -51 c-34 -48 -36 -54 -36 -137 0 -107 6 -128 50 -187 l35 -46 -35 -45
           c-39 -53 -49 -92 -43 -170 4 -44 13 -66 46 -114 46 -64 49 -75 27 -104 -32
           -42 -13 -152 35 -213 19 -24 19 -28 5 -49 -22 -33 -20 -131 3 -169 10 -17 35
           -39 55 -50 36 -19 37 -21 37 -78 0 -32 5 -68 11 -79 11 -21 12 -21 25 -3 9 12
           14 45 14 87 0 62 2 68 20 68 39 0 81 30 101 73 24 53 24 93 0 137 l-18 35 33
           44 c59 76 66 145 22 220 l-19 34 44 46 c60 62 67 78 67 161 0 76 -8 99 -48
           143 l-26 27 37 31 c60 50 82 100 82 195 0 83 -3 90 -69 179 -7 9 4 28 36 64
           57 64 78 107 78 165 0 39 4 48 33 70 19 14 42 42 53 61 22 41 24 42 159 50 54
           4 115 13 133 21 19 7 44 11 56 9 11 -3 48 3 80 15 33 11 68 20 79 20 28 0 81
           38 101 71 22 37 21 39 -19 39 -57 0 -159 59 -380 220 -157 115 -193 132 -283
           138 -65 4 -76 2 -110 -21 -74 -48 -95 -152 -47 -233 l25 -42 -32 -11 c-49 -17
           -75 -14 -82 12 -11 40 -6 87 14 143 24 69 18 106 -23 140 -43 37 -109 30 -149
           -15 -32 -36 -35 -68 -13 -131 23 -65 20 -125 -7 -144 -29 -21 -40 -20 -71 4
           l-26 21 31 44 c36 51 40 101 13 159 -39 81 -155 117 -260 78z m150 -13 c21 -6
           54 -26 73 -45 32 -32 34 -38 29 -80 -3 -33 -13 -54 -36 -78 -17 -17 -31 -39
           -31 -47 0 -8 15 -30 34 -48 32 -31 39 -33 77 -27 l41 7 -4 -71 c-4 -80 -12
           -90 -73 -90 -76 0 -160 71 -153 129 3 23 -2 26 -35 32 -71 11 -126 70 -134
           142 l-5 45 -53 -42 c-57 -47 -199 -135 -266 -166 -47 -21 -143 -27 -169 -10
           -19 12 -22 9 95 68 55 27 147 81 205 119 249 164 309 188 405 162z m322 -31
           c29 -27 30 -76 2 -112 -29 -36 -82 -36 -121 1 -40 38 -38 83 4 118 37 31 77
           29 115 -7z m315 18 c49 -14 116 -57 303 -191 66 -47 162 -106 214 -132 l94
           -46 -24 -20 c-30 -24 -102 -19 -175 12 -68 30 -234 158 -264 205 l-25 39 -5
           -45 c-10 -85 -69 -138 -152 -138 -37 0 -46 -3 -42 -14 13 -35 -53 -112 -109
           -127 -22 -6 -57 -7 -78 -4 l-39 7 0 71 0 72 43 -3 c35 -3 49 1 75 23 39 33 40
           51 6 86 -39 40 -45 116 -14 159 40 57 106 72 192 46z m-874 -226 c10 -27 8
           -32 -22 -55 -19 -14 -69 -46 -112 -70 -62 -36 -88 -45 -126 -45 -26 0 -49 4
           -52 9 -3 5 18 21 47 35 28 15 95 58 147 95 52 38 98 67 102 65 3 -2 11 -17 16
           -34z m542 -2 c0 -60 -20 -462 -26 -525 -5 -44 -9 -53 -25 -53 -10 0 -28 9 -39
           20 -18 18 -20 33 -20 143 0 68 3 199 7 290 l6 167 49 0 48 0 0 -42z m559 -62
           c76 -62 169 -126 182 -126 5 0 9 -7 9 -15 0 -26 -67 -18 -131 16 -60 32 -159
           127 -159 152 0 16 9 27 23 27 5 0 40 -24 76 -54z m-1050 -10 l22 -24 -72 -51
           c-73 -51 -112 -65 -165 -59 -28 3 -28 4 26 39 30 20 77 55 105 78 27 22 52 41
           56 41 3 0 16 -11 28 -24z m212 -181 c15 -9 55 -15 89 -15 46 0 62 -4 67 -16
           10 -26 -10 -33 -66 -23 -48 9 -58 8 -107 -16 -52 -26 -54 -26 -78 -8 -27 21
           -66 74 -66 91 0 6 14 27 31 47 l32 36 34 -41 c19 -22 48 -47 64 -55z m598 20
           c17 -20 31 -39 31 -43 0 -4 -18 -26 -40 -49 -39 -42 -63 -53 -75 -33 -4 6 -25
           20 -47 31 -31 16 -55 20 -102 17 -58 -3 -61 -2 -64 21 -4 22 -1 23 33 17 60
           -12 123 3 168 39 23 19 47 34 53 34 7 1 26 -15 43 -34z m-468 -104 l23 -18
           -27 -27 c-30 -30 -96 -36 -117 -11 -7 8 -17 15 -23 15 -14 0 -2 -76 17 -105
           22 -33 100 -76 205 -114 119 -43 187 -86 228 -145 28 -41 33 -57 33 -105 0
           -70 -29 -133 -82 -174 -41 -33 -73 -32 -109 4 l-20 20 35 41 c46 53 55 100 30
           147 -16 28 -45 48 -162 110 -165 88 -204 117 -232 171 -25 50 -25 96 0 138 38
           62 153 92 201 53z m311 10 c13 -5 38 -24 56 -42 25 -25 32 -41 32 -71 0 -71
           -77 -183 -139 -203 -24 -7 -101 30 -101 49 0 8 15 19 34 26 72 23 146 110 146
           171 0 22 0 22 -21 3 -28 -26 -94 -22 -125 7 -13 12 -24 28 -24 34 0 28 92 45
           142 26z m-362 -381 c22 -11 40 -25 40 -30 0 -5 -9 -25 -21 -45 -17 -28 -20
           -44 -15 -79 10 -61 29 -82 140 -151 125 -77 162 -108 186 -156 41 -79 15 -203
           -51 -250 -26 -18 -34 -19 -59 -9 -52 21 -55 33 -25 95 43 87 34 104 -102 195
           -136 91 -148 102 -184 165 -47 81 -36 199 23 262 26 28 20 27 68 3z m17 -435
           c48 -29 48 -30 28 -65 -36 -63 -5 -126 94 -192 61 -41 109 -87 127 -120 18
           -35 18 -101 -1 -137 -15 -30 -70 -81 -86 -81 -19 0 -27 45 -16 97 10 49 9 54
           -14 79 -13 15 -49 42 -79 62 -110 69 -156 131 -167 222 -4 38 0 59 20 104 14
           31 31 56 38 56 7 0 32 -11 56 -25z m4 -382 c26 -15 29 -23 29 -67 l0 -50 95
           -91 c91 -87 95 -92 95 -134 0 -42 -31 -111 -50 -111 -4 0 -4 19 1 41 5 23 7
           51 3 63 -9 31 -53 75 -99 98 -121 62 -170 150 -135 242 11 31 22 32 61 9z" />
                </g>
            </svg>